<svg xmlns="http://www.w3.org/2000/svg" viewBox="0 0 1160 500" font-family="-apple-system, BlinkMacSystemFont, 'Segoe UI', Helvetica, Arial, sans-serif" role="img" aria-label="NanoWM architecture">
<defs>
<linearGradient id="bl" x1="0" y1="0" x2="0" y2="1"><stop offset="0" stop-color="#eaf2fc"/><stop offset="1" stop-color="#d3e4fa"/></linearGradient>
<linearGradient id="am" x1="0" y1="0" x2="0" y2="1"><stop offset="0" stop-color="#fef1da"/><stop offset="1" stop-color="#fde0b6"/></linearGradient>
<linearGradient id="gr" x1="0" y1="0" x2="0" y2="1"><stop offset="0" stop-color="#e6f5e9"/><stop offset="1" stop-color="#d0eed6"/></linearGradient>
<linearGradient id="card" x1="0" y1="0" x2="0" y2="1"><stop offset="0" stop-color="#ffffff"/><stop offset="1" stop-color="#f6f7fb"/></linearGradient>
<filter id="soft" x="-20%" y="-20%" width="140%" height="140%"><feDropShadow dx="0" dy="2" stdDeviation="3" flood-color="#1a1f2b" flood-opacity="0.12"/></filter>
<filter id="blur"><feGaussianBlur stdDeviation="6"/></filter>
<marker id="ah" markerWidth="9" markerHeight="9" refX="7" refY="3" orient="auto" markerUnits="userSpaceOnUse"><path d="M0,0 L7.5,3 L0,6 Z" fill="#9aa3b2"/></marker>
<style>.wire{stroke:#9aa3b2;stroke-width:1.8;stroke-linecap:round;stroke-dasharray:1 7;animation:flow 1.1s linear infinite;}@keyframes flow{to{stroke-dashoffset:-16;}}.glow{animation:glow 2.8s ease-in-out infinite;}@keyframes glow{0%,100%{opacity:.18}50%{opacity:.6}}.dot{filter:drop-shadow(0 0 2px rgba(0,0,0,.15));}.lbl{fill:#1a1f2b;font-size:13px;}.sub{fill:#6b7280;font-size:11px;font-style:italic;}</style>
</defs>
<rect x="1" y="1" width="1158" height="498" rx="18" fill="url(#card)" stroke="#e6e8ee" stroke-width="1.5"/>
<text x="580.0" y="38" text-anchor="middle" font-size="19" font-weight="700" fill="#1a1f2b">NanoWM Architecture</text>
<text x="120" y="84" text-anchor="middle" class="sub">Camera frames</text>
<rect x="86" y="106" width="48" height="30" rx="4" fill="#ffffff" stroke="#6b7280" stroke-width="1.3" opacity="0.5"/>
<rect x="91" y="101" width="48" height="30" rx="4" fill="#ffffff" stroke="#6b7280" stroke-width="1.3" opacity="0.7"/>
<rect x="96" y="96" width="48" height="30" rx="4" fill="#ffffff" stroke="#6b7280" stroke-width="1.3" opacity="0.9"/>
<rect x="40" y="160" width="160" height="70" rx="14" ry="14" fill="url(#bl)" stroke="#3b7dc4" stroke-width="1.7" filter="url(#soft)"/>
<text x="120" y="190" text-anchor="middle" font-size="13.5" font-weight="700" fill="#163a60">Frozen VAE Encoder</text>
<text x="120" y="210" text-anchor="middle" class="sub" fill="#163a60">SD-pretrained, never trained</text>
<rect x="40" y="312" width="58" height="58" rx="14" ry="14" fill="url(#bl)" stroke="#3b7dc4" stroke-width="1.7" filter="url(#soft)"/>
<text x="69.0" y="347" text-anchor="middle" font-size="16" font-style="italic" fill="#163a60">z<tspan baseline-shift="sub" font-size="10">t−3</tspan></text>
<rect x="104" y="312" width="58" height="58" rx="14" ry="14" fill="url(#bl)" stroke="#3b7dc4" stroke-width="1.7" filter="url(#soft)"/>
<text x="133.0" y="347" text-anchor="middle" font-size="16" font-style="italic" fill="#163a60">z<tspan baseline-shift="sub" font-size="10">t−2</tspan></text>
<rect x="168" y="312" width="58" height="58" rx="14" ry="14" fill="url(#bl)" stroke="#3b7dc4" stroke-width="1.7" filter="url(#soft)"/>
<text x="197.0" y="347" text-anchor="middle" font-size="16" font-style="italic" fill="#163a60">z<tspan baseline-shift="sub" font-size="10">t−1</tspan></text>
<rect x="232" y="312" width="58" height="58" rx="14" ry="14" fill="url(#bl)" stroke="#3b7dc4" stroke-width="1.7" filter="url(#soft)"/>
<text x="261.0" y="347" text-anchor="middle" font-size="16" font-style="italic" fill="#163a60">z<tspan baseline-shift="sub" font-size="10">t</tspan></text>
<text x="175" y="300" text-anchor="middle" class="sub" fill="#163a60">context latents</text>
<rect x="412" y="150" width="288" height="230" rx="20" fill="none" stroke="#d8902a" stroke-width="6" class="glow" filter="url(#blur)"/>
<rect x="420" y="158" width="272" height="214" rx="14" ry="14" fill="url(#am)" stroke="#d8902a" stroke-width="1.7" filter="url(#soft)"/>
<text x="556.0" y="232" text-anchor="middle" font-size="17" font-weight="700" fill="#7a4d0c">Transformer</text>
<text x="556.0" y="256" text-anchor="middle" font-size="12.5" fill="#7a4d0c">~160M params · diffusion forcing</text>
<text x="556.0" y="298" text-anchor="middle" font-size="13" font-style="italic" fill="#7a4d0c">AdaLN:  γ(a)·LN(x)+β(a)</text>
<text x="125" y="404" text-anchor="middle" class="sub">action chunk  (Δx, Δθ)</text>
<rect x="40" y="414" width="170" height="56" rx="14" ry="14" fill="url(#am)" stroke="#d8902a" stroke-width="1.7" filter="url(#soft)"/>
<text x="125" y="447" text-anchor="middle" font-size="13.5" font-weight="700" fill="#7a4d0c">Action Embedding</text>
<rect x="742" y="212" width="120" height="96" rx="14" ry="14" fill="url(#am)" stroke="#d8902a" stroke-width="2.4" filter="url(#soft)"/>
<text x="802.0" y="262" text-anchor="middle" font-size="20" font-style="italic" fill="#7a4d0c">z&#770;<tspan baseline-shift="sub" font-size="11">t+1</tspan></text>
<text x="802.0" y="286" text-anchor="middle" class="sub" fill="#7a4d0c">predicted latent</text>
<rect x="912" y="207" width="208" height="106" rx="14" ry="14" fill="url(#gr)" stroke="#3a9d4e" stroke-width="1.7" filter="url(#soft)"/>
<text x="1016.0" y="251" text-anchor="middle" font-size="14" font-weight="700" fill="#1f5e2d">Token → RGB Decoder</text>
<text x="1016.0" y="273" text-anchor="middle" class="sub" fill="#1f5e2d">visualization only</text>
<text x="1016.0" y="190" text-anchor="middle" font-size="11" font-style="italic" fill="#1f5e2d">planner scores in token space — never decodes</text>
<path class="wire" d="M120,128 L120,158" fill="none" marker-end="url(#ah)"/>
<path class="wire" d="M120,230 L120,310" fill="none" marker-end="url(#ah)"/>
<path class="wire" d="M292,341 C352,341 360,255 416,255" fill="none" marker-end="url(#ah)"/>
<path class="wire" d="M212,438 C338,438 392,360 498,360" fill="none" marker-end="url(#ah)"/>
<path class="wire" d="M692,255 L740,256" fill="none" marker-end="url(#ah)"/>
<path class="wire" d="M862,260 L910,260" fill="none" marker-end="url(#ah)"/>
<text x="372" y="312" text-anchor="middle" class="sub" fill="#d8902a">γ(a), β(a)</text>
<text x="716" y="246" text-anchor="middle" class="sub">denoise</text>
<path id="p54073" d="M120,230 L120,310" fill="none" stroke="none"/><circle r="3.4" fill="#3b7dc4" class="dot"><animateMotion dur="1.6s" begin="0s" repeatCount="indefinite" rotate="auto" keyPoints="0;1" keyTimes="0;1" calcMode="linear"><mpath href="#p54073"/></animateMotion></circle>
<path id="p87313" d="M292,341 C352,341 360,255 416,255" fill="none" stroke="none"/><circle r="3.4" fill="#3b7dc4" class="dot"><animateMotion dur="1.7s" begin="0.3s" repeatCount="indefinite" rotate="auto" keyPoints="0;1" keyTimes="0;1" calcMode="linear"><mpath href="#p87313"/></animateMotion></circle>
<path id="p70516" d="M212,438 C338,438 392,360 498,360" fill="none" stroke="none"/><circle r="3.4" fill="#d8902a" class="dot"><animateMotion dur="1.9s" begin="0.1s" repeatCount="indefinite" rotate="auto" keyPoints="0;1" keyTimes="0;1" calcMode="linear"><mpath href="#p70516"/></animateMotion></circle>
<path id="p15467" d="M692,255 L740,256" fill="none" stroke="none"/><circle r="3.4" fill="#d8902a" class="dot"><animateMotion dur="1.2s" begin="0.2s" repeatCount="indefinite" rotate="auto" keyPoints="0;1" keyTimes="0;1" calcMode="linear"><mpath href="#p15467"/></animateMotion></circle>
<path id="p68860" d="M862,260 L910,260" fill="none" stroke="none"/><circle r="3.4" fill="#3a9d4e" class="dot"><animateMotion dur="1.2s" begin="0.6s" repeatCount="indefinite" rotate="auto" keyPoints="0;1" keyTimes="0;1" calcMode="linear"><mpath href="#p68860"/></animateMotion></circle>
<rect x="289" y="476" width="18" height="13" rx="3" fill="#d3e4fa" stroke="#3b7dc4" stroke-width="1.4"/>
<text x="314" y="486" class="lbl">Frozen / pretrained</text>
<rect x="493" y="476" width="18" height="13" rx="3" fill="#fde0b6" stroke="#d8902a" stroke-width="1.4"/>
<text x="518" y="486" class="lbl">Trained on robot data</text>
<rect x="712" y="476" width="18" height="13" rx="3" fill="#d0eed6" stroke="#3a9d4e" stroke-width="1.4"/>
<text x="737" y="486" class="lbl">Visualization only</text>
</svg>